# xmcd
# Track frame offsets:
# 150
# 15515
# 26757
# 42142
# 59450
# 76200
# 91360
# 106150
# 117455
# 135817
#
# Disc length: 2009 seconds
# Revision: 5
# Processed by: cddbd v1.5.2PL0 Copyright (c) Steve Scherf et al.
# Submitted via: VisiTrax 2.11.3.279 - For more info visit www.synapsa.com
#
DISCID=7107d70a
DTITLE=Johnny Cash - Rockabilly Blues
DYEAR=1980
DGENRE=Country
TTITLE0=Johnny Cash - Cold Lonesome Morning
TTITLE1=Johnny Cash - Without Love
TTITLE2=Johnny Cash - W-O-M-A-N
TTITLE3=Johnny Cash - The Cowboy Who Started The Fight
TTITLE4=Johnny Cash - The Twentieth Century Is Almost Over
TTITLE5=Johnny Cash - Rockabilly Blues (Texas 1955)
TTITLE6=Johnny Cash - The Last Time
TTITLE7=Johnny Cash - She's A Go-er
TTITLE8=Johnny Cash - It Ain't Nothing New Babe
TTITLE9=Johnny Cash With June Carter - One Way Rider
EXTD=Sony Music Special Products
EXTT0=
EXTT1=
EXTT2=
EXTT3=
EXTT4=
EXTT5=
EXTT6=
EXTT7=
EXTT8=
EXTT9=
PLAYORDER=
